<svg width="132" height="132" viewBox="0 0 132 132" fill="none" xmlns="http://www.w3.org/2000/svg">
<circle cx="82" cy="82" r="50" fill="#EBEBEB"/>
<path d="M92.2201 78.805C93.2835 78.365 94.3835 77.87 95.5201 77.32C96.6935 76.7333 97.8301 76.11 98.9301 75.45C100.03 74.7533 101.075 74.0383 102.065 73.305C103.092 72.535 104.008 71.7283 104.815 70.885H110.535V109H102.34V81.555C101.24 82.2883 100.012 82.9667 98.6551 83.59C97.2985 84.1767 95.9785 84.69 94.6951 85.13L92.2201 78.805Z" fill="white"/>
<path fill-rule="evenodd" clip-rule="evenodd" d="M25.1786 54.5942C21.5748 49.5784 19.458 43.4339 19.458 36.7907C19.458 19.9215 33.1285 6.25098 50 6.25098C66.8669 6.25098 80.542 19.9215 80.542 36.7907C80.542 43.4339 78.4252 49.5784 74.8214 54.5942L90.857 74.6902C91.2551 75.1891 91.4323 75.8288 91.3476 76.4614C91.1761 77.7432 89.9979 78.6432 88.7161 78.4717L73.7583 76.4698L74.0061 90.6931C74.0188 91.4197 73.6933 92.111 73.1253 92.5643C72.1144 93.3709 70.6411 93.2053 69.8344 92.1944L50 67.3374L30.1648 92.1954C29.7116 92.7634 29.0204 93.0888 28.2939 93.0765C27.0008 93.0538 25.9707 91.9874 25.9931 90.6944L26.2394 76.4698L11.2841 78.4716C10.6515 78.5563 10.0118 78.3791 9.51288 77.981C8.50201 77.1744 8.33645 75.701 9.14307 74.6901L25.1786 54.5942ZM50 15.7206C61.6403 15.7206 71.0748 25.155 71.0748 36.7907C71.0748 48.4333 61.6403 57.8678 50 57.8678C38.355 57.8678 28.9253 48.4333 28.9253 36.7907C28.9253 25.155 38.355 15.7206 50 15.7206Z" fill="#3E66FB"/>
</svg>
