<svg width="132" height="132" viewBox="0 0 132 132" fill="none" xmlns="http://www.w3.org/2000/svg">
<circle cx="82" cy="82" r="50" fill="#EBEBEB"/>
<path d="M115.65 80.895C115.65 82.2883 115.375 83.6267 114.825 84.91C114.275 86.1933 113.56 87.44 112.68 88.65C111.8 89.8233 110.81 90.96 109.71 92.06C108.61 93.16 107.528 94.205 106.465 95.195C105.915 95.7083 105.31 96.295 104.65 96.955C104.027 97.5783 103.422 98.22 102.835 98.88C102.248 99.54 101.717 100.163 101.24 100.75C100.8 101.3 100.525 101.758 100.415 102.125H116.805V109H91.3951C91.3218 108.597 91.2851 108.083 91.2851 107.46C91.2851 106.837 91.2851 106.397 91.2851 106.14C91.2851 104.38 91.5601 102.767 92.1101 101.3C92.6968 99.8333 93.4485 98.4767 94.3651 97.23C95.2818 95.9467 96.3085 94.755 97.4451 93.655C98.6185 92.555 99.7735 91.455 100.91 90.355C101.79 89.5117 102.615 88.7233 103.385 87.99C104.155 87.22 104.833 86.4867 105.42 85.79C106.007 85.0567 106.465 84.3417 106.795 83.645C107.125 82.9117 107.29 82.1783 107.29 81.445C107.29 79.8317 106.832 78.695 105.915 78.035C104.998 77.375 103.862 77.045 102.505 77.045C101.515 77.045 100.58 77.21 99.7001 77.54C98.8568 77.8333 98.0685 78.2 97.3351 78.64C96.6385 79.0433 96.0335 79.465 95.5201 79.905C95.0068 80.3083 94.6218 80.6383 94.3651 80.895L90.2951 75.175C91.9085 73.6717 93.7785 72.4433 95.9051 71.49C98.0685 70.5 100.378 70.005 102.835 70.005C105.072 70.005 106.997 70.2617 108.61 70.775C110.223 71.2883 111.543 72.0217 112.57 72.975C113.633 73.8917 114.403 75.0283 114.88 76.385C115.393 77.705 115.65 79.2083 115.65 80.895Z" fill="white"/>
<path d="M88.4615 65.3923C88.4598 70.6521 86.6619 75.7537 83.3655 79.8524C80.069 83.9511 75.4717 86.8011 70.3346 87.9307L67.8808 80.5692C70.1278 80.1991 72.2648 79.3351 74.1377 78.0396C76.0106 76.744 77.5727 75.049 78.7115 73.0769H69.2308C67.1906 73.0769 65.2341 72.2665 63.7915 70.8239C62.3489 69.3813 61.5385 67.4247 61.5385 65.3846V50C61.5385 47.9599 62.3489 46.0033 63.7915 44.5607C65.2341 43.1181 67.1906 42.3077 69.2308 42.3077H80.5308C79.5922 34.8727 75.9728 28.0356 70.3516 23.0795C64.7305 18.1234 57.494 15.3887 50 15.3887C42.506 15.3887 35.2695 18.1234 29.6483 23.0795C24.0272 28.0356 20.4078 34.8727 19.4692 42.3077H30.7692C32.8093 42.3077 34.7659 43.1181 36.2085 44.5607C37.6511 46.0033 38.4615 47.9599 38.4615 50V65.3846C38.4615 67.4247 37.6511 69.3813 36.2085 70.8239C34.7659 72.2665 32.8093 73.0769 30.7692 73.0769H19.2308C17.1906 73.0769 15.2341 72.2665 13.7915 70.8239C12.3489 69.3813 11.5385 67.4247 11.5385 65.3846V46.1538C11.5385 24.9115 28.7577 7.69229 50 7.69229C71.2423 7.69229 88.4615 24.9115 88.4615 46.1538V65.3923Z" fill="#3E66FB"/>
</svg>
