<svg width="132" height="132" viewBox="0 0 132 132" fill="none" xmlns="http://www.w3.org/2000/svg">
<circle cx="82" cy="82" r="50" fill="#EBEBEB"/>
<path d="M100.91 109.825C99.9201 109.825 98.8751 109.752 97.7751 109.605C96.6751 109.495 95.6118 109.33 94.5851 109.11C93.5585 108.89 92.6235 108.652 91.7801 108.395C90.9368 108.138 90.2768 107.9 89.8001 107.68L91.3951 100.86C92.3485 101.263 93.5585 101.703 95.0251 102.18C96.5285 102.62 98.3801 102.84 100.58 102.84C103.11 102.84 104.962 102.363 106.135 101.41C107.308 100.457 107.895 99.1733 107.895 97.56C107.895 96.57 107.675 95.745 107.235 95.085C106.832 94.3883 106.263 93.8383 105.53 93.435C104.797 92.995 103.917 92.7017 102.89 92.555C101.9 92.3717 100.837 92.28 99.7001 92.28H96.5101V85.68H100.14C100.947 85.68 101.717 85.6067 102.45 85.46C103.22 85.3133 103.898 85.075 104.485 84.745C105.072 84.3783 105.53 83.9017 105.86 83.315C106.227 82.6917 106.41 81.9217 106.41 81.005C106.41 80.3083 106.263 79.7033 105.97 79.19C105.677 78.6767 105.292 78.255 104.815 77.925C104.375 77.595 103.843 77.3567 103.22 77.21C102.633 77.0267 102.028 76.935 101.405 76.935C99.8285 76.935 98.3618 77.1733 97.0051 77.65C95.6851 78.1267 94.4751 78.7133 93.3751 79.41L90.4601 73.415C91.0468 73.0483 91.7251 72.6633 92.4951 72.26C93.3018 71.8567 94.1818 71.49 95.1351 71.16C96.0885 70.83 97.0968 70.555 98.1601 70.335C99.2601 70.115 100.415 70.005 101.625 70.005C103.862 70.005 105.787 70.28 107.4 70.83C109.05 71.3433 110.407 72.095 111.47 73.085C112.533 74.0383 113.322 75.175 113.835 76.495C114.348 77.7783 114.605 79.19 114.605 80.73C114.605 82.2333 114.183 83.7 113.34 85.13C112.497 86.5233 111.36 87.5867 109.93 88.32C111.91 89.1267 113.432 90.3367 114.495 91.95C115.595 93.5267 116.145 95.4333 116.145 97.67C116.145 99.43 115.852 101.062 115.265 102.565C114.678 104.032 113.762 105.315 112.515 106.415C111.268 107.478 109.673 108.322 107.73 108.945C105.823 109.532 103.55 109.825 100.91 109.825Z" fill="white"/>
<path d="M22.0651 31.9668L15.5447 20.9375L19.8916 16.5258L30.7589 23.1434V27.5551L41.9367 38.8994C41.9367 39.2145 41.9367 39.5297 41.9367 39.8448L37.9003 43.6262L26.412 31.9668H22.0651ZM68.6391 58.752C67.7076 58.752 67.0866 58.752 66.1552 58.752C63.9817 58.752 62.1188 58.4369 60.2558 58.1218L53.7354 65.6847L68.3286 82.3861C71.744 86.1675 77.6434 86.4826 81.0589 82.7012C84.7848 78.9198 84.4743 73.2476 80.7484 69.7812L68.6391 58.752ZM79.1959 46.7774C84.1638 41.7355 85.7163 34.1726 83.8533 27.5551C83.5428 26.2946 81.9903 25.9795 81.3693 26.9248L70.5021 37.9541L61.8083 29.1307L72.6755 18.1014C73.607 17.1561 73.2965 15.8956 72.0545 15.5805C65.5342 13.3746 58.0823 14.9502 53.1144 20.3073C47.5256 25.9795 46.2836 34.8028 49.3885 41.7355L18.3392 69.7812C14.6133 73.2476 14.3028 79.2349 18.0287 82.7012C21.7546 86.4826 27.3435 86.1675 30.7589 82.3861L58.3928 50.874C65.2237 54.0252 73.607 52.7647 79.1959 46.7774Z" fill="#3E66FB"/>
</svg>
