<svg width="36" height="34" viewBox="0 0 36 34" fill="none" xmlns="http://www.w3.org/2000/svg">
<path d="M1 1H7.18182L11.3236 21.4038C11.465 22.1054 11.852 22.7356 12.4171 23.1841C12.9822 23.6326 13.6893 23.8708 14.4145 23.8571H29.4364C30.1616 23.8708 30.8687 23.6326 31.4338 23.1841C31.9989 22.7356 32.3859 22.1054 32.5273 21.4038L35 8.61905H8.72727M14.9091 31.4762C14.9091 32.3178 14.2172 33 13.3636 33C12.5101 33 11.8182 32.3178 11.8182 31.4762C11.8182 30.6346 12.5101 29.9524 13.3636 29.9524C14.2172 29.9524 14.9091 30.6346 14.9091 31.4762ZM31.9091 31.4762C31.9091 32.3178 31.2172 33 30.3636 33C29.5101 33 28.8182 32.3178 28.8182 31.4762C28.8182 30.6346 29.5101 29.9524 30.3636 29.9524C31.2172 29.9524 31.9091 30.6346 31.9091 31.4762Z" stroke="#706C68" stroke-width="1.2" stroke-linecap="round" stroke-linejoin="round"/>
</svg>
