<svg width="86" height="30" viewBox="0 0 86 30" fill="none" xmlns="http://www.w3.org/2000/svg">
<g clip-path="url(#clip0_1153_5851)">
<path d="M42.8343 9.26717L46.9239 9.01801C47.0131 9.66331 47.1936 10.1546 47.4653 10.4918C47.9091 11.0385 48.5417 11.3118 49.3631 11.3118C49.976 11.3118 50.4489 11.1723 50.7818 10.8935C50.9342 10.7777 51.058 10.6303 51.1442 10.462C51.2303 10.2937 51.2766 10.1089 51.2796 9.92102C51.277 9.7409 51.2339 9.5635 51.1533 9.40125C51.0727 9.239 50.9565 9.09583 50.8129 8.98177C50.5018 8.70594 49.7681 8.4447 48.6117 8.19806C46.7264 7.78733 45.3818 7.2407 44.5781 6.55816C44.187 6.24015 43.8747 5.84072 43.6644 5.38952C43.4541 4.93832 43.3511 4.44693 43.3632 3.95183C43.3662 3.25216 43.5827 2.56904 43.9855 1.98877C44.4454 1.33476 45.0951 0.828108 45.8521 0.533092C46.6818 0.179742 47.8225 0.00306702 49.2744 0.00306702C51.0519 0.00306702 52.4073 0.324202 53.3407 0.966474C54.274 1.60874 54.8294 2.62953 55.0067 4.02884L50.9544 4.25836C50.8507 3.65435 50.6247 3.21241 50.2762 2.93255C49.9278 2.65269 49.4507 2.51326 48.8451 2.51427C48.3457 2.51427 47.9693 2.61846 47.7173 2.82382C47.5983 2.91268 47.502 3.02708 47.4362 3.15808C47.3703 3.28907 47.3366 3.43309 47.3377 3.57885C47.3415 3.69195 47.3714 3.80279 47.4253 3.90316C47.4791 4.00353 47.5555 4.09086 47.6488 4.1587C47.8511 4.33689 48.3317 4.50299 49.0909 4.65701C50.97 5.04963 52.3182 5.44727 53.1354 5.84995C53.9525 6.25263 54.5437 6.75144 54.9087 7.3464C55.2813 7.94994 55.4735 8.64216 55.4641 9.34569C55.4685 10.1976 55.2113 11.0314 54.7252 11.7406C54.2192 12.4801 53.4994 13.058 52.6562 13.4017C51.7696 13.7792 50.6527 13.9679 49.3055 13.9679C46.94 13.9679 45.3015 13.526 44.3899 12.6421C43.4783 11.7582 42.9598 10.6333 42.8343 9.26717ZM0.975346 13.7414V0.231083H8.14033C9.46879 0.231083 10.4841 0.341316 11.1861 0.561782C11.8777 0.776204 12.4756 1.20885 12.8848 1.79096C13.3302 2.43706 13.557 3.20192 13.5335 3.97901C13.5515 4.65714 13.3795 5.3273 13.0357 5.9179C12.7058 6.4654 12.2387 6.92303 11.6777 7.24825C11.2061 7.50077 10.6971 7.68108 10.1688 7.7828C10.5641 7.89581 10.9407 8.0631 11.2873 8.2796C11.5448 8.4874 11.7766 8.72355 11.9779 8.98328C12.2045 9.24143 12.405 9.52004 12.5768 9.81532L14.6582 13.7414H9.80013L7.5041 9.60844C7.21269 9.07389 6.95342 8.72658 6.72631 8.56651C6.41683 8.35832 6.04813 8.24904 5.67163 8.25393H5.28896V13.7414H0.975346ZM5.28896 5.70196H7.10587C7.49039 5.67409 7.87151 5.61243 8.24455 5.51774C8.52332 5.46582 8.77195 5.31444 8.94145 5.09342C9.1207 4.87016 9.21618 4.59424 9.21212 4.31122C9.22382 4.12331 9.19139 3.93529 9.11728 3.76133C9.04318 3.58738 8.92933 3.43204 8.78434 3.30704C8.50018 3.07348 7.96558 2.95671 7.18054 2.95671H5.28896V5.70196ZM0 25.3023L4.08961 25.0547C4.17879 25.6999 4.35924 26.1912 4.63095 26.5285C5.06962 27.0751 5.70378 27.3484 6.53342 27.3484C7.14632 27.3484 7.61921 27.2085 7.9521 26.9286C8.10455 26.8128 8.22838 26.6654 8.31452 26.4971C8.40065 26.3289 8.4469 26.144 8.44989 25.9562C8.44715 25.7761 8.40397 25.5987 8.32337 25.4365C8.24277 25.2743 8.12669 25.1311 7.98321 25.0169C7.6721 24.7411 6.93839 24.4803 5.78207 24.2347C3.89672 23.822 2.55218 23.2753 1.74847 22.5948C1.35741 22.2764 1.04517 21.8767 0.834863 21.4253C0.624557 20.9738 0.521581 20.4823 0.533562 19.987C0.537006 19.2874 0.753493 18.6044 1.15579 18.0239C1.61574 17.3699 2.26545 16.8632 3.02248 16.5682C3.85212 16.2149 4.99288 16.0382 6.44475 16.0382C8.22225 16.0382 9.57768 16.3593 10.511 17.0016C11.4444 17.6439 11.9997 18.6647 12.177 20.064L8.13255 20.295C8.02884 19.691 7.80277 19.2485 7.45432 18.9677C7.10587 18.6868 6.62934 18.5489 6.02474 18.5539C5.52592 18.5539 5.14999 18.6546 4.89695 18.8559C4.77792 18.9448 4.68171 19.0592 4.61585 19.1902C4.55 19.3212 4.5163 19.4652 4.51739 19.611C4.52094 19.7243 4.55075 19.8355 4.60461 19.9361C4.65847 20.0367 4.735 20.1243 4.82851 20.1923C5.03073 20.3705 5.5114 20.5361 6.27053 20.6891C8.14966 21.0817 9.49783 21.4794 10.315 21.8821C11.1322 22.2847 11.7233 22.7836 12.0884 23.3785C12.4607 23.9821 12.653 24.6743 12.6437 25.3778C12.6484 26.2297 12.3911 27.0636 11.9048 27.7727C11.3989 28.5122 10.6791 29.0901 9.83591 29.4338C8.94923 29.8113 7.83232 30 6.4852 30C4.11968 30 2.48114 29.5581 1.56958 28.6742C0.658009 27.7903 0.134817 26.6664 0 25.3023ZM25.3559 24.2438L29.1235 25.3491C28.9151 26.2769 28.5075 27.1517 27.9273 27.9162C27.3985 28.5917 26.703 29.1271 25.905 29.473C25.0982 29.8224 24.0715 29.997 22.825 29.997C21.3129 29.997 20.0778 29.7841 19.1196 29.3583C18.1613 28.9324 17.3317 28.1819 16.6307 27.1068C15.9338 26.0327 15.5858 24.658 15.5869 22.9829C15.5869 20.75 16.1987 19.0331 17.4224 17.8321C18.6462 16.6311 20.378 16.0312 22.6181 16.0322C24.3717 16.0322 25.7494 16.3764 26.7512 17.065C27.753 17.7536 28.4976 18.8106 28.985 20.2361L25.1894 21.0561C25.1003 20.7347 24.9596 20.4289 24.7725 20.15C24.5427 19.8402 24.2404 19.5877 23.8905 19.4131C23.5279 19.2378 23.1274 19.1492 22.7223 19.1549C21.7485 19.1549 21.0023 19.5355 20.4838 20.2965C20.0897 20.8613 19.8932 21.7477 19.8943 22.9557C19.8943 24.4516 20.1286 25.4775 20.5974 26.0332C21.0661 26.5889 21.7241 26.8662 22.5714 26.8652C23.3927 26.8652 24.015 26.6412 24.4381 26.1932C24.8612 25.7452 25.1671 25.0954 25.3559 24.2438ZM32.4353 16.2662H36.7334V20.9896H41.4312V16.2662H45.7479V29.7705H41.4312V24.3117H36.7334V29.775H32.4353V16.2662ZM48.4235 23.0267C48.4235 20.824 49.0561 19.1076 50.3213 17.8774C51.5865 16.6472 53.3495 16.0332 55.6103 16.0352C57.925 16.0352 59.7087 16.6392 60.9615 17.8472C62.2142 19.0553 62.8421 20.745 62.8453 22.9164C62.8453 24.4959 62.5715 25.7905 62.0239 26.8003C61.4911 27.7967 60.6654 28.6171 59.6517 29.1574C58.6146 29.7192 57.3256 30 55.7845 30C54.2165 30 52.9202 29.7574 51.8956 29.2722C50.8429 28.7658 49.9718 27.9633 49.3958 26.9694C48.7466 25.9204 48.4225 24.6062 48.4235 23.0267ZM52.7216 23.0463C52.7216 24.4104 52.9808 25.3899 53.4994 25.9848C54.0179 26.5798 54.7283 26.8773 55.6305 26.8773C56.5545 26.8773 57.2696 26.5858 57.7756 26.003C58.2817 25.4201 58.5348 24.3731 58.5348 22.8621C58.5348 21.5906 58.2703 20.6614 57.7414 20.0745C57.2125 19.4876 56.4959 19.1947 55.5916 19.1957C55.1984 19.182 54.8071 19.2547 54.447 19.4085C54.0868 19.5622 53.7671 19.793 53.5118 20.0836C52.986 20.6876 52.7226 21.6752 52.7216 23.0463Z" fill="#0E0E16"/>
<path d="M61.0225 23.0266C61.0225 20.824 61.6551 19.1076 62.9203 17.8774C64.1855 16.6472 65.9485 16.0331 68.2092 16.0351C70.526 16.0351 72.3102 16.6391 73.562 17.8472C74.8137 19.0552 75.4395 20.7455 75.4395 22.9179C75.4395 24.4974 75.1663 25.792 74.6197 26.8017C74.0864 27.7978 73.2609 28.6181 72.2475 29.1589C71.2104 29.7206 69.9214 30.0015 68.3803 30.0015C66.8113 30.0015 65.515 29.7589 64.4914 29.2737C63.4386 28.7669 62.5671 27.9646 61.99 26.9709C61.345 25.9209 61.0225 24.6061 61.0225 23.0266ZM65.3221 23.0463C65.3221 24.4103 65.5813 25.3898 66.0999 25.9848C66.6184 26.5798 67.3298 26.8777 68.2341 26.8787C69.1581 26.8787 69.8732 26.5873 70.3792 26.0044C70.8853 25.4215 71.1384 24.3746 71.1384 22.8635C71.1384 21.5921 70.8744 20.6629 70.3466 20.076C69.8187 19.4891 69.1021 19.1962 68.1968 19.1972C67.8029 19.1824 67.4108 19.2546 67.0497 19.4081C66.6887 19.5616 66.3682 19.7925 66.1123 20.0836C65.5844 20.6876 65.321 21.6751 65.3221 23.0463Z" fill="#0E0E16"/>
<path d="M74.9912 16.2662H79.2908V26.4454H86V29.7674H74.9912V16.2662Z" fill="#0E0E16"/>
</g>
<defs>
<clipPath id="clip0_1153_5851">
<rect width="86" height="30" fill="white"/>
</clipPath>
</defs>
</svg>
