<svg width="116" height="44" viewBox="0 0 116 44" fill="none" xmlns="http://www.w3.org/2000/svg">
<path d="M8.96277 32.9101C7.36797 29.4653 5.82633 25.8611 4.33785 22.0974C2.87064 18.3337 1.49911 14.5699 0.223272 10.8062H4.65681C5.16715 12.2947 5.68812 13.8151 6.21972 15.3673C6.75132 16.9196 7.28292 18.4506 7.81451 19.9603C8.34611 21.4488 8.87771 22.8948 9.40931 24.2982C9.94091 25.7016 10.4619 26.9881 10.9722 28.1576C11.4613 26.9881 11.9716 25.7123 12.5032 24.3301C13.0348 22.9267 13.5664 21.4701 14.098 19.9603C14.6509 18.4506 15.1931 16.9196 15.7247 15.3673C16.2563 13.8151 16.7667 12.2947 17.2557 10.8062H21.5617C20.2646 14.5699 18.8824 18.3337 17.4152 22.0974C15.948 25.8611 14.417 29.4653 12.8222 32.9101H8.96277ZM24.4201 32.9101V10.8062H38.6138V14.2191H28.439V19.6733H37.4975V23.0224H28.439V29.4972H39.3793V32.9101H24.4201ZM49.2013 10.5829C52.3909 10.5829 54.8256 11.1677 56.5055 12.3372C58.2066 13.5067 59.0571 15.2929 59.0571 17.6957C59.0571 20.694 57.5793 22.7247 54.6236 23.7879C55.0276 24.2769 55.4848 24.8723 55.9951 25.574C56.5055 26.2757 57.0264 27.0413 57.558 27.8705C58.0896 28.6786 58.6 29.5185 59.089 30.3903C59.5781 31.2409 60.014 32.0808 60.3968 32.9101H55.8994C55.4954 32.1446 55.0595 31.3791 54.5917 30.6136C54.1239 29.8268 53.6455 29.072 53.1564 28.349C52.6886 27.6047 52.2208 26.9137 51.753 26.2757C51.2852 25.6166 50.8492 25.0318 50.4452 24.5215C50.1475 24.5427 49.8924 24.5534 49.6797 24.5534C49.4671 24.5534 49.2651 24.5534 49.0737 24.5534H47.1281V32.9101H43.1092V11.1252C44.0873 10.9125 45.1292 10.7743 46.235 10.7105C47.3407 10.6255 48.3295 10.5829 49.2013 10.5829ZM49.4884 14.0596C48.6378 14.0596 47.851 14.0915 47.1281 14.1553V21.3H48.8823C49.8605 21.3 50.7217 21.2468 51.4659 21.1405C52.2101 21.0342 52.8268 20.8428 53.3159 20.5664C53.8262 20.2899 54.209 19.9178 54.4641 19.45C54.7193 18.9822 54.8469 18.3868 54.8469 17.6638C54.8469 16.9834 54.7193 16.4093 54.4641 15.9415C54.209 15.4736 53.8368 15.1015 53.3478 14.8251C52.88 14.5487 52.3165 14.3573 51.6573 14.251C50.9981 14.1234 50.2751 14.0596 49.4884 14.0596ZM106.092 29.9119C107.538 29.9119 108.591 29.6674 109.25 29.1783C109.909 28.6892 110.239 27.9981 110.239 27.105C110.239 26.5734 110.122 26.1163 109.888 25.7335C109.675 25.3508 109.356 25.0105 108.931 24.7128C108.527 24.3939 108.027 24.1068 107.432 23.8517C106.836 23.5752 106.156 23.3094 105.391 23.0543C104.625 22.7778 103.881 22.4801 103.158 22.1612C102.456 21.8209 101.829 21.4063 101.276 20.9172C100.744 20.4282 100.308 19.8434 99.9682 19.1629C99.6493 18.4825 99.4898 17.6638 99.4898 16.707C99.4898 14.7081 100.181 13.1452 101.563 12.0182C102.945 10.87 104.827 10.2959 107.209 10.2959C108.591 10.2959 109.813 10.4553 110.877 10.7743C111.961 11.072 112.812 11.4016 113.428 11.7631L112.184 15.0165C111.461 14.6125 110.664 14.3041 109.792 14.0915C108.942 13.8788 108.059 13.7725 107.145 13.7725C106.06 13.7725 105.21 13.9958 104.593 14.4423C103.998 14.8889 103.7 15.5162 103.7 16.3242C103.7 16.8133 103.796 17.2386 103.987 17.6C104.2 17.9403 104.487 18.2486 104.848 18.525C105.231 18.8015 105.667 19.0566 106.156 19.2905C106.666 19.5244 107.219 19.7477 107.815 19.9603C108.857 20.3431 109.782 20.7365 110.59 21.1405C111.419 21.5232 112.11 21.9911 112.663 22.5439C113.237 23.0755 113.673 23.7134 113.971 24.4577C114.268 25.1807 114.417 26.0631 114.417 27.105C114.417 29.1039 113.705 30.6561 112.28 31.7619C110.877 32.8463 108.814 33.3886 106.092 33.3886C105.178 33.3886 104.338 33.3248 103.572 33.1972C102.828 33.0909 102.158 32.9526 101.563 32.7825C100.989 32.6124 100.489 32.4423 100.064 32.2722C99.6386 32.0808 99.2984 31.9107 99.0432 31.7619L100.223 28.4766C100.798 28.7955 101.574 29.1145 102.552 29.4335C103.53 29.7524 104.71 29.9119 106.092 29.9119Z" fill="#323032"/>
<g clip-path="url(#clip0_1151_4198)">
<rect x="63.3146" y="7.49438" width="31.0112" height="31.0112" rx="15.5056" fill="#323032"/>
<path fill-rule="evenodd" clip-rule="evenodd" d="M76.7838 12.0299L78.978 23.1307L79.0835 23.1101L76.8892 12.0093L76.7838 12.0299Z" fill="white"/>
<path fill-rule="evenodd" clip-rule="evenodd" d="M81.2833 34.2113L79.0838 23.1099L78.9783 23.1305L81.1778 34.2324L81.2833 34.2113Z" fill="white"/>
<path fill-rule="evenodd" clip-rule="evenodd" d="M90.1241 20.872L79.0209 23.0678L79.042 23.1722L90.1452 20.9759L90.1241 20.872Z" fill="white"/>
<path fill-rule="evenodd" clip-rule="evenodd" d="M78.9783 11.8045V23.12H79.0838V11.8045H78.9783Z" fill="white"/>
<path fill-rule="evenodd" clip-rule="evenodd" d="M84.6426 13.2936L78.9881 23.0937L79.0778 23.1469L84.7375 13.3468L84.6426 13.2936Z" fill="white"/>
<path fill-rule="evenodd" clip-rule="evenodd" d="M88.8049 17.4163L79.0045 23.0743L79.0573 23.1661L88.8576 17.5086L88.8049 17.4163Z" fill="white"/>
<path fill-rule="evenodd" clip-rule="evenodd" d="M90.3502 23.0675H79.0308V23.1735H90.3502V23.0675Z" fill="white"/>
<path fill-rule="evenodd" clip-rule="evenodd" d="M88.8576 28.7312L79.0573 23.0743L79.0045 23.1661L88.8049 28.8262L88.8576 28.7312Z" fill="white"/>
<path fill-rule="evenodd" clip-rule="evenodd" d="M84.7375 32.8928L79.0778 23.0938L78.9881 23.1471L84.6426 32.9456L84.7375 32.8928Z" fill="white"/>
<path fill-rule="evenodd" clip-rule="evenodd" d="M73.419 32.9455L79.0787 23.147L78.989 23.0938L73.3293 32.8928L73.419 32.9455Z" fill="white"/>
<path fill-rule="evenodd" clip-rule="evenodd" d="M69.2569 28.8259L79.0572 23.1658L79.0044 23.074L69.2041 28.7309L69.2569 28.8259Z" fill="white"/>
<path fill-rule="evenodd" clip-rule="evenodd" d="M67.7169 23.1735H79.031V23.0675H67.7169V23.1735Z" fill="white"/>
<path fill-rule="evenodd" clip-rule="evenodd" d="M69.2041 17.5088L79.0044 23.1663L79.0572 23.0745L69.2569 17.4165L69.2041 17.5088Z" fill="white"/>
<path fill-rule="evenodd" clip-rule="evenodd" d="M73.3293 13.3469L78.989 23.147L79.0787 23.0938L73.419 13.2937L73.3293 13.3469Z" fill="white"/>
<path fill-rule="evenodd" clip-rule="evenodd" d="M82.6328 12.3918L78.9827 23.1033L79.0829 23.1376L82.733 12.4261L82.6328 12.3918Z" fill="white"/>
<path fill-rule="evenodd" clip-rule="evenodd" d="M87.5126 15.6281L78.9993 23.08L79.0679 23.1602L87.5812 15.7078L87.5126 15.6281Z" fill="white"/>
<path fill-rule="evenodd" clip-rule="evenodd" d="M89.7587 26.7165L79.0511 23.0702L79.0142 23.1704L89.727 26.8167L89.7587 26.7165Z" fill="white"/>
<path fill-rule="evenodd" clip-rule="evenodd" d="M86.5254 31.6008L79.0723 23.0856L78.9932 23.1552L86.4462 31.6693L86.5254 31.6008Z" fill="white"/>
<path fill-rule="evenodd" clip-rule="evenodd" d="M75.4334 33.8477L79.0835 23.1377L78.9833 23.1035L75.3332 33.816L75.4334 33.8477Z" fill="white"/>
<path fill-rule="evenodd" clip-rule="evenodd" d="M70.5547 30.6145L79.068 23.1605L78.9994 23.0803L70.4809 30.5301L70.5547 30.6145Z" fill="white"/>
<path fill-rule="evenodd" clip-rule="evenodd" d="M67.9435 25.366L79.0414 23.1723L79.0203 23.0679L67.9225 25.2658L67.9435 25.366Z" fill="white"/>
<path fill-rule="evenodd" clip-rule="evenodd" d="M68.3028 19.522L79.0156 23.1704L79.0526 23.0702L68.3397 19.4218L68.3028 19.522Z" fill="white"/>
<path fill-rule="evenodd" clip-rule="evenodd" d="M71.5413 14.6397L78.9944 23.1549L79.0735 23.0853L71.6204 14.5695L71.5413 14.6397Z" fill="white"/>
<path fill-rule="evenodd" clip-rule="evenodd" d="M79.0838 34.4385V23.1204H78.9783V34.4385H79.0838Z" fill="white"/>
<path d="M79.0308 10.7302C72.1949 10.7302 66.6407 16.2806 66.6407 23.12C66.6407 29.9601 72.1949 35.5089 79.0308 35.5089C85.8721 35.5089 91.421 29.9601 91.421 23.12C91.421 16.2806 85.8721 10.7302 79.0308 10.7302ZM79.0308 11.6152C85.3815 11.6152 90.5401 16.7695 90.5401 23.12C90.5401 29.4695 85.3815 34.6228 79.0308 34.6228C72.6802 34.6228 67.5268 29.4695 67.5268 23.12C67.5268 16.7695 72.6802 11.6152 79.0308 11.6152Z" fill="white" stroke="white" stroke-width="1.22533" stroke-linecap="round" stroke-linejoin="round" stroke-dasharray="4.9 1.23"/>
<g opacity="0.16477" filter="url(#filter0_f_1151_4198)">
<path d="M79.0312 11.1581C72.4284 11.1581 67.0693 16.5171 67.0693 23.1198C67.0693 29.7226 72.4284 35.0814 79.0312 35.0814C85.6341 35.0814 90.9931 29.7225 90.9931 23.1198C90.9931 16.517 85.6341 11.1581 79.0312 11.1581ZM79.0312 11.6152C85.3823 11.6152 90.5365 16.7693 90.5365 23.1203C90.5365 29.4708 85.3823 34.6253 79.0312 34.6253C72.6811 34.6253 67.5269 29.4712 67.5269 23.1203C67.5269 16.7697 72.6811 11.6152 79.0312 11.6152Z" fill="white"/>
</g>
<path d="M79.0306 11.6152C72.6799 11.6152 67.5266 16.7695 67.5266 23.12C67.5266 29.4695 72.6799 34.6227 79.0306 34.6227C85.3813 34.6227 90.5399 29.4695 90.5399 23.12C90.5399 16.7695 85.3813 11.6152 79.0306 11.6152ZM79.0306 12.5003C84.896 12.5003 89.6537 17.2579 89.6537 23.12C89.6537 28.9843 84.896 33.7419 79.0306 33.7419C73.1704 33.7419 68.4127 28.9843 68.4127 23.12C68.4127 17.2579 73.1704 12.5003 79.0306 12.5003Z" fill="white"/>
<path d="M80.27 23.1201C80.27 23.4487 80.1395 23.7639 79.9071 23.9962C79.6747 24.2286 79.3596 24.3591 79.031 24.3591C78.7023 24.3591 78.3872 24.2286 78.1548 23.9962C77.9224 23.7639 77.7919 23.4487 77.7919 23.1201C77.7919 22.7915 77.9224 22.4763 78.1548 22.244C78.3872 22.0116 78.7023 21.8811 79.031 21.8811C79.3596 21.8811 79.6747 22.0116 79.9071 22.244C80.1395 22.4763 80.27 22.7915 80.27 23.1201Z" fill="white"/>
<path d="M79.7792 23.12C79.7792 23.3175 79.7008 23.5068 79.5611 23.6464C79.4215 23.7861 79.2321 23.8645 79.0347 23.8645C78.8372 23.8645 78.6479 23.7861 78.5082 23.6464C78.3686 23.5068 78.2902 23.3175 78.2902 23.12C78.2902 22.9225 78.3686 22.7332 78.5082 22.5936C78.6479 22.4539 78.8372 22.3755 79.0347 22.3755C79.2321 22.3755 79.4215 22.4539 79.5611 22.5936C79.7008 22.7332 79.7792 22.9225 79.7792 23.12Z" fill="white"/>
</g>
<defs>
<filter id="filter0_f_1151_4198" x="63.735" y="7.82376" width="30.5925" height="30.592" filterUnits="userSpaceOnUse" color-interpolation-filters="sRGB">
<feFlood flood-opacity="0" result="BackgroundImageFix"/>
<feBlend mode="normal" in="SourceGraphic" in2="BackgroundImageFix" result="shape"/>
<feGaussianBlur stdDeviation="1.66718" result="effect1_foregroundBlur_1151_4198"/>
</filter>
<clipPath id="clip0_1151_4198">
<rect x="63.3146" y="7.49438" width="31.0112" height="31.0112" rx="15.5056" fill="white"/>
</clipPath>
</defs>
</svg>
